<svg preserveAspectRatio="none" overflow="visible" style="display: block;" width="24" height="24" viewBox="0 0 24 24" fill="none" xmlns="http://www.w3.org/2000/svg">
<g id="gram_logo">
<path id="Subtract" fill-rule="evenodd" clip-rule="evenodd" d="M15.4246 4C16.3367 4 16.7928 4.00002 17.2054 4.12849C17.5705 4.24221 17.9094 4.42849 18.2018 4.67641C18.5322 4.95649 18.7789 5.34293 19.2721 6.11578L21.4492 9.5273C21.7751 10.0379 21.9381 10.2934 21.9824 10.5621C22.0214 10.7991 21.9954 11.0423 21.9073 11.2656C21.8074 11.5187 21.5944 11.7334 21.1683 12.1626L13.078 20.3117C12.7007 20.6917 12.5121 20.8818 12.2945 20.953C12.1031 21.0157 11.8969 21.0157 11.7055 20.953C11.488 20.8818 11.2993 20.6917 10.922 20.3117L2.83172 12.1626C2.40561 11.7334 2.19264 11.5187 2.09274 11.2656C2.00464 11.0423 1.97862 10.7991 2.01763 10.5621C2.06187 10.2934 2.22489 10.0379 2.55078 9.5273L4.72791 6.11578C5.22114 5.34294 5.46779 4.95649 5.79816 4.67641C6.09058 4.4285 6.42946 4.24221 6.79462 4.12849C7.20716 4.00002 7.6633 4 8.57539 4H15.4246ZM14.776 6.69131C14.6648 6.38838 14.2393 6.38838 14.128 6.69131L13.3592 8.78452C13.3131 8.91025 13.2144 9.00929 13.0896 9.05583L11.0116 9.83046C10.7108 9.94254 10.7108 10.3711 11.0116 10.4832L13.0896 11.2579C13.2144 11.3044 13.3131 11.4035 13.3592 11.5292L14.128 13.6224C14.2393 13.9253 14.6648 13.9253 14.776 13.6224L15.5451 11.5292C15.5912 11.4035 15.6896 11.3044 15.8144 11.2579L17.8927 10.4832C18.1933 10.3711 18.1933 9.94257 17.8927 9.83046L15.8144 9.05583C15.6896 9.00928 15.5912 8.91022 15.5451 8.78452L14.776 6.69131Z" fill="#168BDB"/>
</g>
</svg>
